<?xml version="1.0" encoding="utf-8"?>

<!-- License Agreement at http://iconmonstr.com/license/ -->

<!DOCTYPE svg PUBLIC "-//W3C//DTD SVG 1.1//EN" "http://www.w3.org/Graphics/SVG/1.1/DTD/svg11.dtd">
<svg version="1.1" xmlns="http://www.w3.org/2000/svg" xmlns:xlink="http://www.w3.org/1999/xlink" x="0px" y="0px"
	 width="512px" height="512px" viewBox="0 0 512 512" style="enable-background:new 0 0 512 512;" xml:space="preserve">
<path id="calculator-2-icon" d="M129.809,188.618l20.638-20.638l-20.638-20.638l15.336-15.337l20.638,20.639l20.64-20.639
	l15.336,15.337L181.12,167.98l20.638,20.638l-15.336,15.337l-20.64-20.639l-20.638,20.639L129.809,188.618z M177.051,308.23h-22.726
	v26.838h-26.837v22.727h26.837v26.838h22.726v-26.838h26.839v-22.727h-26.839V308.23z M345.292,146.607
	c7.278,0,13.199-5.921,13.199-13.199c0-7.278-5.921-13.199-13.199-13.199s-13.199,5.921-13.199,13.199
	C332.093,140.687,338.014,146.607,345.292,146.607z M358.491,200.575c0-7.278-5.921-13.199-13.199-13.199
	s-13.199,5.921-13.199,13.199s5.921,13.199,13.199,13.199S358.491,207.853,358.491,200.575z M308.203,156.128v21.268h76.403v-21.268
	H308.203z M308.203,337.536h76.403v-21.269h-76.403V337.536z M308.203,376.598h76.403v-21.266h-76.403V376.598z M462,125
	c0-41.422-33.578-75-75-75H125c-41.422,0-75,33.578-75,75v262c0,41.421,33.578,75,75,75h262c41.422,0,75-33.579,75-75V125z M422,130
	v111H271V90h111C404.092,90,422,107.908,422,130z M130,90h111v151H90V130C90,107.908,107.908,90,130,90z M90,382V271h151v151H130
	C107.908,422,90,404.092,90,382z M382,422H271V271h151v111C422,404.092,404.092,422,382,422z"/>
</svg>
